<?xml version="1.0" encoding="UTF-8" standalone="no"?>
<svg width="256" height="256" viewBox="0 0 256 256" fill="none" xmlns="http://www.w3.org/2000/svg">
  <defs>
    <linearGradient id="b" x1="96" y1="42" x2="178" y2="176" gradientUnits="userSpaceOnUse">
      <stop offset="0" stop-color="#1DB7FF"/>
      <stop offset="1" stop-color="#0A45B8"/>
    </linearGradient>
    <linearGradient id="o" x1="52" y1="150" x2="208" y2="130" gradientUnits="userSpaceOnUse">
      <stop offset="0" stop-color="#FF8A00"/>
      <stop offset="1" stop-color="#FF5A00"/>
    </linearGradient>
  </defs>

  <!-- Buildings -->
  <path d="M92 90L118 70V162H92V90Z" fill="url(#b)"/>
  <path d="M118 70L130 81V162H118V70Z" fill="#083A9E"/>

  <path d="M124 58L154 34V162H124V58Z" fill="#083A9E"/>
  <path d="M154 34L172 50V162H154V34Z" fill="url(#b)"/>

  <path d="M166 82L190 64V162H166V82Z" fill="url(#b)"/>
  <path d="M190 64L202 75V162H190V64Z" fill="#083A9E"/>

  <!-- Base -->
  <path d="M84 162H202L216 176H84V162Z" fill="#0A3B9F"/>

  <!-- Swoosh -->
  <path d="M44 148C67 124 100 112 140 113C173 114 201 121 224 136L212 154C190 143 166 138 140 138C103 138 73 147 50 166C40 159 37 155 44 148Z" fill="url(#o)"/>

  <!-- Check -->
  <path d="M135 146L153 128L170 141L210 106L159 171L135 146Z" fill="#FFD36B"/>
</svg>
